<?xml version="1.0" encoding="utf-8"?>
<!-- Generator: Adobe Illustrator 25.1.0, SVG Export Plug-In . SVG Version: 6.00 Build 0)  -->
<svg version="1.1" xmlns="http://www.w3.org/2000/svg" xmlns:xlink="http://www.w3.org/1999/xlink" x="0px" y="0px"
	 viewBox="0 0 882.05 179.04" style="enable-background:new 0 0 882.05 179.04;" xml:space="preserve">
<style type="text/css">
	.st0{fill:#262626;}
	.st1{fill:url(#SVGID_1_);}
	.st2{fill:url(#SVGID_2_);}
	.st3{fill:url(#SVGID_3_);}
	.st4{fill:url(#SVGID_4_);}
	.st5{fill:url(#SVGID_5_);}
	.st6{fill:url(#SVGID_6_);}
	.st7{fill:url(#SVGID_7_);}
	.st8{fill:url(#SVGID_8_);}
	.st9{fill:url(#SVGID_9_);}
	.st10{fill:url(#SVGID_10_);}
	.st11{fill:url(#SVGID_11_);}
</style>
<g id="Camada_2">
	<rect x="-20.38" y="-20.8" class="st0" width="920" height="241"/>
</g>
<g id="Camada_1">
	<linearGradient id="SVGID_1_" gradientUnits="userSpaceOnUse" x1="0" y1="89.46" x2="71.82" y2="89.46">
		<stop  offset="0" style="stop-color:#3768C3"/>
		<stop  offset="1" style="stop-color:#399BE5"/>
	</linearGradient>
	<polygon class="st1" points="0,166.86 19.98,178.92 71.82,90.2 20.52,0 0,12.42 44.28,89.46 	"/>
	<linearGradient id="SVGID_2_" gradientUnits="userSpaceOnUse" x1="60.78" y1="90.3" x2="206.94" y2="90.3">
		<stop  offset="0" style="stop-color:#F5F5F5"/>
		<stop  offset="1" style="stop-color:#FFFFFF"/>
	</linearGradient>
	<polyline class="st2" points="74.16,86.94 90.9,58.95 180.9,179.04 206.94,179.04 206.94,1.56 181.26,1.56 180.78,136.68 
		89.34,15.24 60.78,63.96 	"/>
	<g>
		<linearGradient id="SVGID_3_" gradientUnits="userSpaceOnUse" x1="245.5917" y1="90.5224" x2="325.0355" y2="90.5224">
			<stop  offset="0" style="stop-color:#399BE5"/>
			<stop  offset="1" style="stop-color:#3768C3"/>
		</linearGradient>
		<path class="st3" d="M279.22,135.88h-33.62V45.16h33.62c27.1,0,45.82,19.57,45.82,45.1v0.26
			C325.04,116.05,306.31,135.88,279.22,135.88z M305.21,90.52c0-16.07-10.47-27.34-25.99-27.34h-14.66v54.69h14.66
			c15.52,0,25.99-11.02,25.99-27.08V90.52z"/>
		<linearGradient id="SVGID_4_" gradientUnits="userSpaceOnUse" x1="336.7421" y1="101.2785" x2="401.5287" y2="101.2785">
			<stop  offset="0" style="stop-color:#399BE5"/>
			<stop  offset="1" style="stop-color:#3768C3"/>
		</linearGradient>
		<path class="st4" d="M401.28,108.02h-45.94c1.85,8.94,7.76,13.61,16.14,13.61c6.28,0,10.84-2.07,16.01-7.13l10.72,9.98
			c-6.16,8.03-15.03,12.96-26.97,12.96c-19.83,0-34.49-14.64-34.49-35.9v-0.26c0-19.83,13.43-36.16,32.64-36.16
			c22.05,0,32.15,18.01,32.15,37.71v0.26C401.53,105.04,401.41,106.2,401.28,108.02z M369.38,80.93c-7.76,0-12.81,5.83-14.29,14.77
			h28.21C382.19,86.89,377.26,80.93,369.38,80.93z"/>
		<linearGradient id="SVGID_5_" gradientUnits="userSpaceOnUse" x1="406.4589" y1="101.4082" x2="475.4335" y2="101.4082">
			<stop  offset="0" style="stop-color:#399BE5"/>
			<stop  offset="1" style="stop-color:#3768C3"/>
		</linearGradient>
		<path class="st5" d="M449.44,136.4h-17l-25.99-69.98h19.83l14.78,46.52l14.9-46.52h19.46L449.44,136.4z"/>
	</g>
	<g>
		<linearGradient id="SVGID_6_" gradientUnits="userSpaceOnUse" x1="487.6027" y1="91.4582" x2="563.4924" y2="91.4582">
			<stop  offset="0" style="stop-color:#F5F5F5"/>
			<stop  offset="1" style="stop-color:#FFFFFF"/>
		</linearGradient>
		<path class="st6" d="M547.51,136.5l-41.36-57.27v57.27H487.6V46.42h17.33l40.02,55.47V46.42h18.55v90.08H547.51z"/>
		<linearGradient id="SVGID_7_" gradientUnits="userSpaceOnUse" x1="578.132" y1="102.2685" x2="638.2829" y2="102.2685">
			<stop  offset="0" style="stop-color:#F5F5F5"/>
			<stop  offset="1" style="stop-color:#FFFFFF"/>
		</linearGradient>
		<path class="st7" d="M620.35,136.5v-7.46c-4.51,5.28-10.74,8.75-19.77,8.75c-12.32,0-22.45-7.46-22.45-21.11v-0.26
			c0-15.06,10.86-22.01,26.35-22.01c6.59,0,11.35,1.16,15.98,2.83v-1.16c0-8.11-4.76-12.61-14.03-12.61
			c-7.08,0-12.08,1.42-18.06,3.73l-4.64-14.93c7.2-3.35,14.27-5.53,25.38-5.53c20.25,0,29.16,11.07,29.16,29.73v40.02H620.35z
			 M620.71,108.7c-3.17-1.54-7.32-2.57-11.83-2.57c-7.93,0-12.81,3.35-12.81,9.52v0.26c0,5.28,4.15,8.37,10.13,8.37
			c8.66,0,14.52-5.02,14.52-12.1V108.7z"/>
		<linearGradient id="SVGID_8_" gradientUnits="userSpaceOnUse" x1="648.8981" y1="93.7746" x2="690.6257" y2="93.7746">
			<stop  offset="0" style="stop-color:#F5F5F5"/>
			<stop  offset="1" style="stop-color:#FFFFFF"/>
		</linearGradient>
		<path class="st8" d="M675.74,137.66c-11.35,0-19.03-4.76-19.03-20.72V84.25h-7.81V67.52h7.81V49.89h18.55v17.63h15.37v16.73
			h-15.37v29.47c0,4.5,1.83,6.69,5.98,6.69c3.42,0,6.47-0.9,9.15-2.45v15.7C686.48,136.11,681.96,137.66,675.74,137.66z"/>
		<linearGradient id="SVGID_9_" gradientUnits="userSpaceOnUse" x1="704.6555" y1="89.5278" x2="724.1769" y2="89.5278">
			<stop  offset="0" style="stop-color:#F5F5F5"/>
			<stop  offset="1" style="stop-color:#FFFFFF"/>
		</linearGradient>
		<path class="st9" d="M704.66,59.93V42.55h19.52v17.37H704.66z M705.14,136.5V67.52h18.55v68.98H705.14z"/>
		<linearGradient id="SVGID_10_" gradientUnits="userSpaceOnUse" x1="737.9626" y1="102.1398" x2="808.7277" y2="102.1398">
			<stop  offset="0" style="stop-color:#F5F5F5"/>
			<stop  offset="1" style="stop-color:#FFFFFF"/>
		</linearGradient>
		<path class="st10" d="M773.22,138.05c-20.25,0-35.26-15.83-35.26-35.65v-0.26c0-19.82,15.13-35.91,35.5-35.91
			c20.25,0,35.26,15.83,35.26,35.65v0.26C808.73,121.96,793.6,138.05,773.22,138.05z M790.43,102.14c0-10.17-6.95-19.05-17.2-19.05
			c-10.61,0-16.96,8.62-16.96,18.79v0.26c0,10.17,6.95,19.05,17.2,19.05c10.62,0,16.96-8.62,16.96-18.79V102.14z"/>
		<linearGradient id="SVGID_11_" gradientUnits="userSpaceOnUse" x1="822.1467" y1="101.3676" x2="882.0534" y2="101.3676">
			<stop  offset="0" style="stop-color:#F5F5F5"/>
			<stop  offset="1" style="stop-color:#FFFFFF"/>
		</linearGradient>
		<path class="st11" d="M863.51,136.5V98.02c0-9.27-4.15-14.03-11.22-14.03c-7.08,0-11.59,4.76-11.59,14.03v38.48h-18.55V67.52
			h18.55v9.78c4.27-5.79,9.76-11.07,19.16-11.07c14.03,0,22.21,9.78,22.21,25.61v44.66H863.51z"/>
	</g>
	<g>
	</g>
	<g>
	</g>
	<g>
	</g>
	<g>
	</g>
	<g>
	</g>
	<g>
	</g>
	<g>
	</g>
	<g>
	</g>
	<g>
	</g>
	<g>
	</g>
	<g>
	</g>
</g>
</svg>
